<svg xmlns="http://www.w3.org/2000/svg" xmlns:xlink="http://www.w3.org/1999/xlink" data-stacking-context="true" aria-owns="block-canvas1" width="278" height="278" viewBox="1597 565 400 400"><!-- Generated by dom-to-svg from http://ailogo.woa.com/ --><style></style><g data-stacking-layer="rootBackgroundAndBorders"></g><g data-stacking-layer="childStackingContextsWithNegativeStackLevels"></g><g data-stacking-layer="inFlowNonInlineNonPositionedDescendants"></g><g data-stacking-layer="nonPositionedFloats"></g><g data-stacking-layer="inFlowInlineLevelNonPositionedDescendants"></g><g data-stacking-layer="childStackingContextsWithStackLevelZeroAndPositionedDescendantsWithStackLevelZero"></g><g data-stacking-layer="childStackingContextsWithPositiveStackLevels"><g data-tag="div" id="block-canvas1" class="block-canvas notcopy top" data-z-index="2" data-stacking-context="true" aria-owns="block1"><g data-stacking-layer="rootBackgroundAndBorders"><rect width="400" height="400" x="1597" y="565" fill="rgb(0, 35, 64)"></rect></g><g data-stacking-layer="childStackingContextsWithPositiveStackLevels"><g data-tag="div" id="block1" class="block right" data-z-index="2" data-stacking-context="true" mask="url(#mask-for-block11)" aria-owns="info1 info2"><mask id="mask-for-block11"><rect width="278" height="222" x="1653" y="649" fill="#FFFFFF"></rect></mask><g data-tag="div" id="info1" class="info right-top" data-z-index="auto" data-stacking-context="true" aria-owns="icon1"><g data-tag="div" id="icon1" class="icon" data-z-index="auto" data-stacking-context="true" aria-owns="div1"><g data-tag="div" id="div1" data-z-index="auto" data-stacking-context="true" aria-owns="svg1"><g data-tag="svg" id="svg1" data-z-index="auto" data-stacking-context="true" mask="url(#mask-for-svg11)"><g data-stacking-layer="rootBackgroundAndBorders"></g><g data-stacking-layer="childStackingContextsWithNegativeStackLevels"></g><g data-stacking-layer="inFlowNonInlineNonPositionedDescendants"></g><g data-stacking-layer="nonPositionedFloats"></g><g data-stacking-layer="inFlowInlineLevelNonPositionedDescendants"></g><g data-stacking-layer="childStackingContextsWithStackLevelZeroAndPositionedDescendantsWithStackLevelZero"></g><g data-stacking-layer="childStackingContextsWithPositiveStackLevels"></g><mask id="mask-for-svg11"><rect width="103.1875" height="103.1875" x="1740.390625" y="691.890625" fill="#FFFFFF"></rect></mask><g class="svg-content" data-view-box="0 0 100 100" data-width="" data-height="" transform="matrix(1.03188 0 0 1.03188 1740.39 691.891)"><g baseline-shift="baseline" color="rgb(51, 51, 51)" color-interpolation="sRGB" color-interpolation-filters="linearRGB" fill="rgb(51, 51, 51)" stroke="none"><polygon fill="none" points="62.873,41.245 58.475,48.867 41.526,48.867 37.126,41.245 27.018,41.245 21.963,50 27.018,58.754    37.126,58.754 41.526,51.133 58.475,51.133 62.873,58.754 72.982,58.754 78.037,50 72.982,41.245  " baseline-shift="baseline" color="rgb(51, 51, 51)" color-interpolation="sRGB" color-interpolation-filters="linearRGB" stroke="none"></polygon><path d="M87.1,40.302l-3.945-3.946H62.65l-6.041,10.462H43.39l-6.609-11.447l6.609-11.448h13.219l6.041,10.462h18.533L59.697,12.9   C57.105,10.31,53.664,8.883,50,8.883c-3.664,0-7.108,1.426-9.698,4.017L12.9,40.302c-2.59,2.59-4.017,6.034-4.017,9.697   c0,3.665,1.427,7.106,4.017,9.698l4.338,4.338H37.35l6.04-10.461h13.219l6.609,11.447l-6.609,11.449H43.39l-6.04-10.465H19.209   L40.302,87.1c2.59,2.59,6.034,4.018,9.698,4.018c3.662,0,7.105-1.428,9.697-4.018L87.1,59.697c2.59-2.592,4.018-6.035,4.018-9.698   C91.117,46.336,89.689,42.893,87.1,40.302z M72.982,58.754H62.873l-4.398-7.621H41.526l-4.399,7.621H27.018L21.963,50l5.054-8.754   h10.109l4.399,7.622h16.949l4.398-7.622h10.109L78.037,50L72.982,58.754z" style="null;fill:#DDE7F4" baseline-shift="baseline" color="rgb(51, 51, 51)" color-interpolation="sRGB" color-interpolation-filters="linearRGB" fill="rgb(33, 125, 255)" stroke="none"></path><polygon points="54.563,72.924 59.125,65.021 54.563,57.121 45.438,57.121 40.876,65.021 45.438,72.924  " style="null;fill:#DDE7F4" baseline-shift="baseline" color="rgb(51, 51, 51)" color-interpolation="sRGB" color-interpolation-filters="linearRGB" fill="rgb(33, 125, 255)" stroke="none"></polygon><polygon points="45.438,27.469 40.876,35.371 45.438,43.272 54.563,43.272 59.125,35.371 54.563,27.469  " style="null;fill:#DDE7F4" baseline-shift="baseline" color="rgb(51, 51, 51)" color-interpolation="sRGB" color-interpolation-filters="linearRGB" fill="rgb(33, 125, 255)" stroke="none"></polygon></g></g></g></g></g></g><g data-tag="div" id="info2" class="info right-bottom" data-z-index="auto" data-stacking-context="true" aria-owns="info-group1"><g data-tag="div" id="info-group1" class="info-group" data-z-index="auto" data-stacking-context="true" aria-owns="name1"><g data-tag="div" id="name1" class="name" data-z-index="auto" data-stacking-context="true" aria-owns="div2"><g data-tag="div" id="div2" data-z-index="auto" data-stacking-context="true" aria-owns="div3"><g data-tag="div" id="div3" data-z-index="auto" data-stacking-context="true" aria-owns="span1"><g data-tag="span" id="span1" data-z-index="auto" data-stacking-context="true" aria-owns="name-svg1"><g data-tag="div" id="name-svg1" class="name-svg" data-z-index="auto" data-stacking-context="true" aria-owns="svg2"><g data-tag="svg" id="svg2" data-z-index="auto" data-stacking-context="true" mask="url(#mask-for-svg21)"><g data-stacking-layer="rootBackgroundAndBorders"></g><g data-stacking-layer="childStackingContextsWithNegativeStackLevels"></g><g data-stacking-layer="inFlowNonInlineNonPositionedDescendants"></g><g data-stacking-layer="nonPositionedFloats"></g><g data-stacking-layer="inFlowInlineLevelNonPositionedDescendants"></g><g data-stacking-layer="childStackingContextsWithStackLevelZeroAndPositionedDescendantsWithStackLevelZero"></g><g data-stacking-layer="childStackingContextsWithPositiveStackLevels"></g><mask id="mask-for-svg21"><rect width="61.3125" height="35.078125" x="1761.34375" y="802" fill="#FFFFFF"></rect></mask><g class="svg-content" data-view-box="" data-width="61.32" data-height="35.084" transform="matrix(1 0 0 1 1761.34 802)"><path fill="rgb(235, 243, 255)" d="M3.78 27.55L16.86 27.55L18.37 21.90L8.29 21.90L8.29 4.65L2.18 4.65L2.18 25.62Q2.18 27.55 3.78 27.55L3.78 27.55ZM34.78 12.60L34.78 27.38L29.96 27.38L29.76 26.94Q28.03 27.64 25.93 27.64L25.93 27.64Q22.99 27.64 21.74 26.29Q20.50 24.95 20.50 21.78L20.50 21.78L20.50 12.60L25.79 12.60L25.79 21.78Q25.79 22.20 25.90 22.40Q26.01 22.60 26.39 22.68Q26.77 22.76 27.61 22.76L27.61 22.76Q28.42 22.76 28.78 22.62Q29.15 22.48 29.26 22.18Q29.37 21.87 29.37 21.22L29.37 21.22L29.37 12.60L34.78 12.60ZM40.91 11.09Q42.17 11.09 43.06 10.19Q43.96 9.30 43.96 8.01L43.96 8.01Q43.96 6.72 43.06 5.82Q42.17 4.93 40.91 4.93L40.91 4.93Q39.62 4.93 38.72 5.82Q37.83 6.72 37.83 8.01L37.83 8.01Q37.83 9.30 38.72 10.19Q39.62 11.09 40.91 11.09L40.91 11.09ZM38.14 27.47L43.74 27.47L43.74 12.26L38.14 12.26L38.14 27.47ZM55.50 17.98Q58.13 18.40 59.25 19.63Q60.37 20.86 60.37 23.02L60.37 23.02Q60.37 24.72 59.75 25.73Q59.14 26.74 57.72 27.23Q56.31 27.72 53.82 27.72L53.82 27.72Q51.10 27.72 49.62 27.23Q48.13 26.74 47.46 25.66Q46.79 24.58 46.62 22.65L46.62 22.65L51.66 22.12Q51.80 22.96 52.22 23.24Q52.64 23.52 53.82 23.52L53.82 23.52Q54.68 23.52 54.96 23.41Q55.24 23.30 55.24 23.02L55.24 23.02Q55.24 22.74 54.96 22.61Q54.68 22.48 53.73 22.37L53.73 22.37Q50.90 21.98 49.42 21.31Q47.94 20.64 47.40 19.60Q46.87 18.56 46.87 16.88L46.87 16.88Q46.87 14.67 48.41 13.50Q49.95 12.32 53.42 12.32L53.42 12.32Q55.92 12.32 57.22 12.71Q58.52 13.10 59.12 14.10Q59.72 15.09 59.92 17.05L59.92 17.05L55.08 17.72Q55.05 16.97 54.71 16.74Q54.38 16.52 53.34 16.52L53.34 16.52Q52.50 16.52 52.26 16.60Q52.02 16.69 52.02 16.88L52.02 16.88Q52.02 17.14 52.21 17.26Q52.39 17.39 53.10 17.56Q53.82 17.72 55.50 17.98L55.50 17.98Z" style="null;fill:#DDE7F4" baseline-shift="baseline" color="rgb(235, 243, 255)" color-interpolation="sRGB" color-interpolation-filters="linearRGB" stroke="none"></path></g></g></g></g></g></g></g></g></g></g></g></g></g></svg>